<svg xmlns="http://www.w3.org/2000/svg" viewBox="0 0 1024 1024" role="img" aria-labelledby="title desc">
  <title id="title">乔木电影清单</title>
  <desc id="desc">A restrained square cinema mark for Qiaomu movie guide.</desc>
  <defs>
    <linearGradient id="bg" x1="128" y1="80" x2="880" y2="944" gradientUnits="userSpaceOnUse">
      <stop offset="0" stop-color="#202733"/>
      <stop offset=".56" stop-color="#11161d"/>
      <stop offset="1" stop-color="#090d12"/>
    </linearGradient>
    <linearGradient id="gold" x1="256" y1="168" x2="760" y2="856" gradientUnits="userSpaceOnUse">
      <stop offset="0" stop-color="#f4d38c"/>
      <stop offset=".52" stop-color="#e0b86a"/>
      <stop offset="1" stop-color="#9f6f2d"/>
    </linearGradient>
    <filter id="softShadow" x="-20%" y="-20%" width="140%" height="140%">
      <feDropShadow dx="0" dy="28" stdDeviation="34" flood-color="#020408" flood-opacity=".45"/>
    </filter>
  </defs>
  <rect width="1024" height="1024" rx="188" fill="url(#bg)"/>
  <path fill="#f7f3ea" opacity=".05" d="M0 0h1024v220H0z"/>
  <g filter="url(#softShadow)">
    <rect x="190" y="180" width="644" height="664" rx="118" fill="#151b22" stroke="#f7f3ea" stroke-opacity=".16" stroke-width="24"/>
    <path fill="url(#gold)" d="M270 246h484c24 0 44 20 44 44v126H226V290c0-24 20-44 44-44Z"/>
    <path fill="#151b22" d="M286 246h94l-80 170h-94l80-170Zm174 0h96l-80 170h-96l80-170Zm176 0h96l-80 170h-96l80-170Z" opacity=".88"/>
    <path fill="#f7f3ea" d="M362 556c0-83 67-150 150-150s150 67 150 150-67 150-150 150-150-67-150-150Zm68 0a82 82 0 1 0 164 0 82 82 0 0 0-164 0Z"/>
    <path fill="url(#gold)" d="M489 505c0-18 20-29 35-19l82 53c14 9 14 31 0 40l-82 53c-15 10-35-1-35-19V505Z"/>
    <rect x="270" y="520" width="46" height="72" rx="13" fill="#e0b86a"/>
    <rect x="708" y="520" width="46" height="72" rx="13" fill="#e0b86a"/>
  </g>
</svg>
